/* XPM */
static char * 23316_xpm[] = {
"25 15 206 2",
"  	c None",
". 	c #522244",
"+ 	c #003366",
"@ 	c #0D0F0E",
"# 	c #003061",
"$ 	c #BF1119",
"% 	c #020F1E",
"& 	c #62C393",
"* 	c #3F8F60",
"= 	c #419261",
"- 	c #61C392",
"; 	c #5CB88A",
"> 	c #192924",
", 	c #032549",
"' 	c #F52A02",
") 	c #08111F",
"! 	c #4DA473",
"~ 	c #327352",
"{ 	c #429462",
"] 	c #409160",
"^ 	c #3F8E5E",
"/ 	c #449767",
"( 	c #5DB88B",
"_ 	c #001E3C",
": 	c #003265",
"< 	c #FC7800",
"[ 	c #FA7700",
"} 	c #022B0E",
"| 	c #367758",
"1 	c #0C2F16",
"2 	c #195F34",
"3 	c #378056",
"4 	c #327654",
"5 	c #387D59",
"6 	c #3F8E5F",
"7 	c #449666",
"8 	c #59B086",
"9 	c #031A36",
"0 	c #FBA500",
"a 	c #FCA500",
"b 	c #7A5308",
"c 	c #18542F",
"d 	c #266643",
"e 	c #112A19",
"f 	c #1A2E25",
"g 	c #54A37C",
"h 	c #130E10",
"i 	c #746F69",
"j 	c #88717C",
"k 	c #204530",
"l 	c #244D36",
"m 	c #012347",
"n 	c #F0D300",
"o 	c #C6AF03",
"p 	c #9A8500",
"q 	c #9F8A05",
"r 	c #0E0B0D",
"s 	c #3C885D",
"t 	c #185E2F",
"u 	c #1B5F37",
"v 	c #244637",
"w 	c #49A271",
"x 	c #0D1E10",
"y 	c #DE8BB4",
"z 	c #9E567A",
"A 	c #000000",
"B 	c #737071",
"C 	c #002850",
"D 	c #B4BF00",
"E 	c #5E5F02",
"F 	c #52B17C",
"G 	c #00400F",
"H 	c #348653",
"I 	c #1F3529",
"J 	c #002803",
"K 	c #53AC7D",
"L 	c #084C1A",
"M 	c #266743",
"N 	c #337F50",
"O 	c #1A653C",
"P 	c #318351",
"Q 	c #105B27",
"R 	c #196033",
"S 	c #498D6B",
"T 	c #4D9801",
"U 	c #4E9802",
"V 	c #4E9801",
"W 	c #2F5008",
"X 	c #00400E",
"Y 	c #64C595",
"Z 	c #054717",
"` 	c #368354",
" .	c #1A2721",
"..	c #03250A",
"+.	c #195030",
"@.	c #398757",
"#.	c #5CBB8C",
"$.	c #054416",
"%.	c #357855",
"&.	c #206938",
"*.	c #357C54",
"=.	c #03310E",
"-.	c #2CCB13",
";.	c #1F6A11",
">.	c #00430F",
",.	c #064618",
"'.	c #307150",
").	c #61C292",
"!.	c #1B2921",
"~.	c #003F0E",
"{.	c #117821",
"].	c #0F090E",
"^.	c #100F10",
"/.	c #003C0D",
"(.	c #3C865D",
"_.	c #429764",
":.	c #080F20",
"<.	c #20D15C",
"[.	c #157736",
"}.	c #4A4849",
"|.	c #419765",
"1.	c #56B383",
"2.	c #111814",
"3.	c #0D0E0C",
"4.	c #0B0709",
"5.	c #0E551E",
"6.	c #0C4017",
"7.	c #131012",
"8.	c #3D383C",
"9.	c #202122",
"0.	c #0D0F0D",
"a.	c #0C110E",
"b.	c #616161",
"c.	c #040E18",
"d.	c #0EA7CB",
"e.	c #0EA6CB",
"f.	c #0B586A",
"g.	c #463E43",
"h.	c #39895A",
"i.	c #0F5524",
"j.	c #0C160E",
"k.	c #287048",
"l.	c #439869",
"m.	c #3B885D",
"n.	c #4BA170",
"o.	c #246642",
"p.	c #0F581F",
"q.	c #0E501D",
"r.	c #244B36",
"s.	c #4B4A4A",
"t.	c #212121",
"u.	c #444444",
"v.	c #1E7FF7",
"w.	c #1E80F7",
"x.	c #1B6ED5",
"y.	c #173F26",
"z.	c #438E6A",
"A.	c #56AD83",
"B.	c #0D130E",
"C.	c #0D0409",
"D.	c #2F4738",
"E.	c #4B474A",
"F.	c #0A3011",
"G.	c #034613",
"H.	c #095F19",
"I.	c #004C11",
"J.	c #305B46",
"K.	c #494547",
"L.	c #0B0B0B",
"M.	c #080A0C",
"N.	c #5247F7",
"O.	c #112418",
"P.	c #419265",
"Q.	c #2C7F4C",
"R.	c #111513",
"S.	c #1F4D30",
"T.	c #191417",
"U.	c #0A0A0A",
"V.	c #0F0F0F",
"W.	c #064918",
"X.	c #183726",
"Y.	c #3C4D45",
"Z.	c #080909",
"`.	c #464647",
" +	c #383838",
".+	c #5536D9",
"++	c #5435D8",
"@+	c #4B2FBB",
"#+	c #23144C",
"$+	c #201147",
"%+	c #0A1B2D",
"&+	c #2A2528",
"*+	c #0E0E0E",
"=+	c #101010",
"-+	c #0F090F",
";+	c #363B38",
">+	c #0D0D0D",
",+	c #0C0C0C",
"'+	c #3E3E3E",
")+	c #0B1B2B",
"!+	c #012E5B",
"~+	c #263498",
"{+	c #03192F",
"]+	c #0A0B0D",
"^+	c #06131F",
"/+	c #01203F",
". . . . . . . . + + + @ @ @ # + + + + + + + + + + ",
"$ $ $ $ $ $ $ $ + % & * = - ; > , + + + + + + + + ",
"' ' ' ' ' ' ' ' ) ! ~ ~ { ] ^ / ( _ : + + + + + + ",
"< < < < < < < [ } | 1 2 3 4 5 6 7 8 9 + + + + + + ",
"0 0 0 0 0 a 0 b c d e f g h i j k l m + + + + + + ",
"n n n n o p q r s t u v w x y z A B C + + + + + + ",
"D D D D E F G H I J K L M N O P Q R S + + + + + + ",
"T U U V W X Y Z `  ...+.@.#.$.%.&.*.=.+ + + + + + ",
"-.-.-.-.;.>.,.'.).!.~.{.].^./.,.(._.:.+ + + + + + ",
"<.<.<.<.[.}.|.1.2.3.4.5.6.7.8.9.0.a.b.c.+ + + + + ",
"d.d.d.e.f.g.h.i.j.k.l.m.n.o.p.q.r.s.t.u.+ + + + + ",
"v.w.w.v.x.y.z.A.B.C.D.E.F.G.H.I.J.K.L.M.+ + + + + ",
"N.N.N.N.N.O.P.Q.R.S.T.U.^.V.W.X.Y.Z.U.`. +# + + + ",
".+.+.+.+++@+#+$+%+&+*+=+=+%+-+;+>+,+'+)+U.!++ + + ",
"~+~+~+~+~+~+~+~++ {+L.L.]++ ^+U.L./++ + + + + + + "};
